General
Format : AVI
Format/Info : Audio Video Interleave
File size : 474 MiB
Duration : 58mn 5s
Overall bit rate mode : Variable
Overall bit rate : 1 140 Kbps

Video
ID : 0
Format : MPEG-4 Visual
Format profile : Advanced Simple@L5
Format settings, BVOP : 1
Format settings, QPel : No
Format settings, GMC : No warppoints
Format settings, Matrix : Default (H.263)
Muxing mode : Packed bitstream
Codec ID : XVID
Codec ID/Hint : XviD
Duration : 58mn 5s
Bit rate : 1 012 Kbps
Width : 720 pixels
Height : 404 pixels
Display aspect ratio : 16:9
Frame rate : 23.976 fps
Color space : YUV
Chroma subsampling : 4:2:0
Bit depth : 8 bits
Scan type : Progressive
Compression mode : Lossy
Bits/(Pixel*Frame) : 0.145
Stream size : 420 MiB (89%)
Writing library : XviD 1.2.1 (UTC 2008-12-04)

Audio
ID : 1
Format : MPEG Audio
Format version : Version 1
Format profile : Layer 3
Mode : Joint stereo
Mode extension : MS Stereo
Codec ID : 55
Codec ID/Hint : MP3
Duration : 56mn 58s
Bit rate mode : Variable
Bit rate : 118 Kbps
Nominal bit rate : 128 Kbps
Channel(s) : 2 channels
Sampling rate : 48.0 KHz
Compression mode : Lossy
Stream size : 48.0 MiB (10%)
Alignment : Aligned on interleaves
Interleave, duration : 24 ms (0.59 video frame)
Interleave, preload duration : 234 ms
Writing library : LAME3.99r
Encoding settings : -m j -V 4 -q 2 -lowpass 17 ΓÇôabr 128

 
http://s.gullipics.com/image/l/k/q/8uxiyx-kqj9s6-mdmp/GameofThronesS03E08HDTVXVIDSnakes.jpeg